<svg width="197" height="61" viewBox="0 0 197 61" fill="none" xmlns="http://www.w3.org/2000/svg">
<rect x="0.911865" y="0.911621" width="60" height="60" rx="30" fill="#27272D"/>
<path d="M30.6418 11.9019L14.4255 21.49V29.3081L30.7892 38.7487L34.6221 36.5361L18.111 26.9479V23.8502L30.6418 16.6222L43.1725 23.8502V26.2103L46.858 28.2755V21.49L30.6418 11.9019Z" fill="white"/>
<path d="M30.8216 49.9204L47.218 40.2035V32.2806L30.6726 22.7132L26.7971 24.9556L43.4916 34.6724V37.8117L30.8216 45.1367L18.1517 37.8117V35.4199L14.4252 33.327V40.2035L30.8216 49.9204Z" fill="white"/>
<path d="M99.5516 45.1911C97.4983 45.1911 95.6583 44.8578 94.0316 44.1911C92.405 43.5245 91.0983 42.5378 90.1116 41.2311C89.1516 39.9245 88.645 38.3511 88.5916 36.5111H95.8716C95.9783 37.5511 96.3383 38.3511 96.9516 38.9111C97.565 39.4445 98.365 39.7111 99.3516 39.7111C100.365 39.7111 101.165 39.4845 101.752 39.0311C102.338 38.5511 102.632 37.8978 102.632 37.0711C102.632 36.3778 102.392 35.8045 101.912 35.3511C101.458 34.8978 100.885 34.5245 100.192 34.2311C99.525 33.9378 98.565 33.6045 97.3116 33.2311C95.4983 32.6711 94.0183 32.1111 92.8716 31.5511C91.725 30.9911 90.7383 30.1645 89.9116 29.0711C89.085 27.9778 88.6716 26.5511 88.6716 24.7911C88.6716 22.1778 89.6183 20.1378 91.5116 18.6711C93.405 17.1778 95.8716 16.4311 98.9116 16.4311C102.005 16.4311 104.498 17.1778 106.392 18.6711C108.285 20.1378 109.298 22.1911 109.432 24.8311H102.032C101.978 23.9245 101.645 23.2178 101.032 22.7111C100.418 22.1778 99.6316 21.9111 98.6716 21.9111C97.845 21.9111 97.1783 22.1378 96.6716 22.5911C96.165 23.0178 95.9116 23.6445 95.9116 24.4711C95.9116 25.3778 96.3383 26.0845 97.1916 26.5911C98.045 27.0978 99.3783 27.6445 101.192 28.2311C103.005 28.8445 104.472 29.4311 105.592 29.9911C106.738 30.5511 107.725 31.3645 108.552 32.4311C109.378 33.4978 109.792 34.8711 109.792 36.5511C109.792 38.1511 109.378 39.6045 108.552 40.9111C107.752 42.2178 106.578 43.2578 105.032 44.0311C103.485 44.8045 101.658 45.1911 99.5516 45.1911ZM146.041 22.5911L140.001 44.9111H132.441L128.921 30.4311L125.281 44.9111H117.761L111.681 22.5911H118.521L121.681 38.5511L125.441 22.5911H132.681L136.481 38.4711L139.601 22.5911H146.041ZM147.289 33.7111C147.289 31.4178 147.716 29.4045 148.569 27.6711C149.449 25.9378 150.636 24.6045 152.129 23.6711C153.623 22.7378 155.289 22.2711 157.129 22.2711C158.703 22.2711 160.076 22.5911 161.249 23.2311C162.449 23.8711 163.369 24.7111 164.009 25.7511V22.5911H170.849V44.9111H164.009V41.7511C163.343 42.7911 162.409 43.6311 161.209 44.2711C160.036 44.9111 158.663 45.2311 157.089 45.2311C155.276 45.2311 153.623 44.7645 152.129 43.8311C150.636 42.8711 149.449 41.5245 148.569 39.7911C147.716 38.0311 147.289 36.0045 147.289 33.7111ZM164.009 33.7511C164.009 32.0445 163.529 30.6978 162.569 29.7111C161.636 28.7245 160.489 28.2311 159.129 28.2311C157.769 28.2311 156.609 28.7245 155.649 29.7111C154.716 30.6711 154.249 32.0045 154.249 33.7111C154.249 35.4178 154.716 36.7778 155.649 37.7911C156.609 38.7778 157.769 39.2711 159.129 39.2711C160.489 39.2711 161.636 38.7778 162.569 37.7911C163.529 36.8045 164.009 35.4578 164.009 33.7511ZM182.638 15.3111V44.9111H175.798V15.3111H182.638ZM194.435 15.3111V44.9111H187.595V15.3111H194.435Z" fill="white"/>
</svg>
