<svg width="197" height="61" viewBox="0 0 197 61" fill="none" xmlns="http://www.w3.org/2000/svg">
<rect x="0.456055" y="0.456055" width="60" height="60" rx="30" fill="#1F2DB3"/>
<path d="M30.1859 11.4463L13.9697 21.0344V28.8525L30.3334 38.2931L34.1663 36.0805L17.6552 26.4923V23.3946L30.1859 16.1666L42.7167 23.3946V25.7548L46.4022 27.8199V21.0344L30.1859 11.4463Z" fill="white"/>
<path d="M30.3658 49.4648L46.7622 39.748V31.825L30.2168 22.2576L26.3412 24.5L43.0358 34.2168V37.3561L30.3658 44.6812L17.6959 37.3561V34.9643L13.9694 32.8714V39.748L30.3658 49.4648Z" fill="white"/>
<path d="M99.0961 44.7356C97.0427 44.7356 95.2027 44.4022 93.5761 43.7356C91.9494 43.0689 90.6427 42.0822 89.6561 40.7756C88.6961 39.4689 88.1894 37.8956 88.1361 36.0556H95.4161C95.5227 37.0956 95.8827 37.8956 96.4961 38.4556C97.1094 38.9889 97.9094 39.2556 98.8961 39.2556C99.9094 39.2556 100.709 39.0289 101.296 38.5756C101.883 38.0956 102.176 37.4422 102.176 36.6156C102.176 35.9222 101.936 35.3489 101.456 34.8956C101.003 34.4422 100.429 34.0689 99.7361 33.7756C99.0694 33.4822 98.1094 33.1489 96.8561 32.7756C95.0427 32.2156 93.5627 31.6556 92.4161 31.0956C91.2694 30.5356 90.2827 29.7089 89.4561 28.6156C88.6294 27.5222 88.2161 26.0956 88.2161 24.3356C88.2161 21.7222 89.1627 19.6822 91.0561 18.2156C92.9494 16.7222 95.4161 15.9756 98.4561 15.9756C101.549 15.9756 104.043 16.7222 105.936 18.2156C107.829 19.6822 108.843 21.7356 108.976 24.3756H101.576C101.523 23.4689 101.189 22.7622 100.576 22.2556C99.9627 21.7222 99.1761 21.4556 98.2161 21.4556C97.3894 21.4556 96.7227 21.6822 96.2161 22.1356C95.7094 22.5622 95.4561 23.1889 95.4561 24.0156C95.4561 24.9222 95.8827 25.6289 96.7361 26.1356C97.5894 26.6422 98.9227 27.1889 100.736 27.7756C102.549 28.3889 104.016 28.9756 105.136 29.5356C106.283 30.0956 107.269 30.9089 108.096 31.9756C108.923 33.0422 109.336 34.4156 109.336 36.0956C109.336 37.6956 108.923 39.1489 108.096 40.4556C107.296 41.7622 106.123 42.8022 104.576 43.5756C103.029 44.3489 101.203 44.7356 99.0961 44.7356ZM145.585 22.1356L139.545 44.4556H131.985L128.465 29.9756L124.825 44.4556H117.305L111.225 22.1356H118.065L121.225 38.0956L124.985 22.1356H132.225L136.025 38.0156L139.145 22.1356H145.585ZM146.834 33.2556C146.834 30.9622 147.261 28.9489 148.114 27.2156C148.994 25.4822 150.181 24.1489 151.674 23.2156C153.167 22.2822 154.834 21.8156 156.674 21.8156C158.247 21.8156 159.621 22.1356 160.794 22.7756C161.994 23.4156 162.914 24.2556 163.554 25.2956V22.1356H170.394V44.4556H163.554V41.2956C162.887 42.3356 161.954 43.1756 160.754 43.8156C159.581 44.4556 158.207 44.7756 156.634 44.7756C154.821 44.7756 153.167 44.3089 151.674 43.3756C150.181 42.4156 148.994 41.0689 148.114 39.3356C147.261 37.5756 146.834 35.5489 146.834 33.2556ZM163.554 33.2956C163.554 31.5889 163.074 30.2422 162.114 29.2556C161.181 28.2689 160.034 27.7756 158.674 27.7756C157.314 27.7756 156.154 28.2689 155.194 29.2556C154.261 30.2156 153.794 31.5489 153.794 33.2556C153.794 34.9622 154.261 36.3222 155.194 37.3356C156.154 38.3222 157.314 38.8156 158.674 38.8156C160.034 38.8156 161.181 38.3222 162.114 37.3356C163.074 36.3489 163.554 35.0022 163.554 33.2956ZM182.182 14.8556V44.4556H175.342V14.8556H182.182ZM193.979 14.8556V44.4556H187.139V14.8556H193.979Z" fill="#52525F"/>
</svg>
